<?xml version="1.0" standalone="no"?>
<!DOCTYPE svg PUBLIC "-//W3C//DTD SVG 20010904//EN"
 "http://www.w3.org/TR/2001/REC-SVG-20010904/DTD/svg10.dtd">
<svg version="1.0" xmlns="http://www.w3.org/2000/svg"
 width="500.000000pt" height="500.000000pt" viewBox="0 0 500.000000 500.000000"
 preserveAspectRatio="xMidYMid meet">
<metadata>
Created by potrace 1.11, written by Peter Selinger 2001-2013
</metadata>
<g transform="translate(0.000000,500.000000) scale(0.100000,-0.100000)"
fill="#000000" stroke="none">
<path d="M2328 4990 c-131 -16 -308 -70 -422 -127 -305 -153 -557 -442 -666
-763 -55 -161 -62 -223 -67 -587 l-5 -342 -28 -9 c-45 -16 -191 -115 -255
-173 -81 -73 -118 -113 -169 -184 -308 -422 -312 -949 -11 -1434 175 -283 483
-585 860 -843 270 -185 580 -371 782 -469 l123 -60 257 130 c436 220 691 374
963 579 474 359 697 656 782 1042 20 92 22 132 22 325 0 207 -1 226 -26 318
-102 372 -354 661 -709 807 -162 68 -379 99 -548 81 -259 -29 -451 -106 -646
-261 l-75 -60 -63 53 c-197 167 -467 267 -730 270 l-109 2 5 280 c3 251 6 288
26 353 96 325 343 564 661 640 177 43 327 37 499 -20 287 -96 503 -324 587
-623 20 -70 27 -123 31 -237 l6 -148 210 0 210 0 -7 148 c-9 181 -26 280 -70
415 -68 208 -160 354 -325 517 -199 198 -402 308 -676 365 -92 19 -320 28
-417 15z m311 -2690 c106 -57 164 -154 164 -275 0 -94 -29 -159 -97 -222 -29
-26 -61 -53 -71 -59 -19 -11 -19 -14 -2 -180 10 -93 20 -184 24 -201 l5 -33
-166 0 -167 0 6 63 c27 272 31 342 22 346 -38 14 -116 94 -141 145 -136 275
153 560 423 416z"/>
</g>
</svg>
